<?xml version="1.0" encoding="UTF-8"?>
<svg id="Layer_1" data-name="Layer 1" xmlns="http://www.w3.org/2000/svg" viewBox="0 0 162.31 162.31">
  <defs>
    <style>
      .cls-1 {
        fill: #fff;
      }

      .cls-2 {
        fill: red;
      }
    </style>
  </defs>
  <rect class="cls-2" width="162.31" height="162.31"/>
  <g>
    <polygon class="cls-1" points="80.32 46.75 80.32 65.62 79.84 69.93 65.65 83.68 76.67 69.35 77.95 45.19 80.91 34.09 80.32 46.75"/>
    <path class="cls-1" d="M150.04,58.2v45.92h-45.92v31.02c-.31.08-.61.18-.94.26.44,1.33.56,2.7.38,4.03-.31-1.84-.99-3.57-1.99-5.1-1.02-1.53-2.42-2.83-4.06-3.85-1.61-1.02-3.52-1.68-5.48-2.01-1.99-.31-4.08-.28-6.15.13,1-.49,2.09-.79,3.24-.97l-5.08-44.49-5.71-.03-5.26,46.09c1.1.59,2.09,1.28,2.91,2.12-2.47-1.07-4.87-1.89-7.42-2.27-2.35-.38-4.72-.38-7.22-.2.2.36.38.71.54,1.1.79,1.92,1.07,3.98.79,5.97-.51-3.47-2.04-6.66-4.46-9.21v-22.58H12.28v-45.92h45.92V12.28h45.92v45.92h45.92Z"/>
    <path class="cls-1" d="M133.94,131.54c-2.09-.71-4.34-1.1-6.68-1.1-3.42.51-6.56,1.41-9.39,2.93-2.81,1.51-5.21,3.55-7.3,5.97.69-1.86,1.94-3.54,3.52-4.93-1.86-.18-3.59-.26-5.33-.1-1.56.13-3.06.41-4.64.82v14.85h45.92v-33.21c-8.85,0-14.54,6.35-16.1,14.77ZM45.5,120.8c-2.53,0-4.92.49-7.07,1.35-3.85-5.05-9.9-8.31-16.71-8.31-2.58,0-7.17.46-9.44,1.3v34.85h45.92v-23.29c-.33-.36-.69-.69-1.07-1.02-3.06-2.7-7.14-4.39-11.63-4.87Z"/>
  </g>
  <g>
    <g>
      <path d="M97.9,65.05c-.26,0-.46-.21-.46-.47v-4.19c0-.26.21-.46.46-.46s.47.21.47.46v4.19c0,.26-.21.47-.47.47Z"/>
      <path d="M64.42,65.05c-.26,0-.47-.21-.47-.47v-4.19c0-.26.21-.46.47-.46s.47.21.47.46v4.19c0,.26-.21.47-.47.47Z"/>
    </g>
    <g>
      <path class="cls-1" d="M74.88,90.86s-2.09,0-2.09-4.19v-9.12c0-1.62-1.66-2.7-3.14-2.04l-15.69,6.98v-10.46s18.84-12.56,18.84-20.93,4.18-18.84,4.18-23.02,2.09-4.18,4.18-4.18,4.19,0,4.19,4.18,4.18,14.65,4.18,23.02,18.84,20.93,18.84,20.93v10.46l-15.69-6.98c-1.48-.66-3.14.43-3.14,2.04v9.12c0,4.19-2.09,4.19-2.09,4.19h-12.56Z"/>
      <path d="M87.44,91.21h-12.56c-.1,0-2.44-.05-2.44-4.53v-9.12c0-.64-.32-1.23-.86-1.58-.54-.35-1.2-.4-1.79-.14l-15.7,6.98c-.11.04-.23.04-.33-.03-.1-.06-.16-.17-.16-.29v-10.46c0-.12.06-.22.15-.29.19-.12,18.68-12.55,18.68-20.64,0-4.95,1.46-10.67,2.64-15.27.83-3.25,1.55-6.06,1.55-7.75,0-4.53,2.41-4.53,4.53-4.53s4.54,0,4.54,4.53c0,1.69.72,4.5,1.55,7.75,1.18,4.6,2.64,10.32,2.64,15.27,0,8.09,18.49,20.51,18.68,20.64.1.06.15.17.15.29v10.46c0,.12-.06.23-.16.29-.1.06-.22.07-.33.03l-15.7-6.98c-.59-.26-1.25-.21-1.79.14-.54.35-.86.94-.86,1.58v9.12c0,4.48-2.34,4.53-2.44,4.53ZM74.89,90.51h12.55c.06,0,1.74-.1,1.74-3.84v-9.12c0-.88.44-1.69,1.18-2.17.73-.48,1.65-.55,2.46-.19l15.21,6.76v-9.74c-1.94-1.31-18.84-12.97-18.84-21.11,0-4.86-1.45-10.54-2.62-15.1-.84-3.3-1.57-6.15-1.57-7.92,0-3.84-1.78-3.84-3.84-3.84s-3.84,0-3.84,3.84c0,1.78-.73,4.63-1.57,7.92-1.16,4.56-2.61,10.24-2.61,15.1,0,8.15-16.9,19.8-18.84,21.11v9.74l15.21-6.76c.8-.35,1.72-.28,2.46.19.74.48,1.18,1.29,1.18,2.17v9.12c0,3.71,1.65,3.83,1.75,3.84Z"/>
    </g>
    <path d="M79.04,61.56c-.75,0-1.36-.73-1.36-1.64v-11.83c0-.78-.08-1.56-.24-2.32l-1.22-5.86c-.18-.88-.1-1.82.24-2.64l2.58-6.2c.23-.56,1.54-.91,2.12-.91s1.89.35,2.12.91l2.58,6.2c.34.82.42,1.75.24,2.64l-1.22,5.86c-.16.76-.24,1.54-.24,2.32v11.83c0,.91-.61,1.64-1.37,1.64h-4.23Z"/>
    <g>
      <g>
        <polygon class="cls-1" points="79.07 84.58 53.95 72.03 53.95 82.49 79.07 88.77 79.07 84.58"/>
        <path d="M79.07,89.12s-.06,0-.08-.01l-25.11-6.28c-.16-.04-.27-.18-.27-.34v-10.46c0-.12.06-.23.17-.3.1-.06.23-.07.34-.01l25.11,12.56c.12.06.19.18.19.31v4.18c0,.11-.05.21-.13.28-.06.05-.14.07-.22.07ZM54.3,82.22l24.42,6.1v-3.52l-24.42-12.21v9.63Z"/>
      </g>
      <g>
        <polygon class="cls-1" points="83.25 84.58 108.37 72.03 108.37 82.49 83.25 88.77 83.25 84.58"/>
        <path d="M83.25,89.12c-.08,0-.15-.03-.22-.07-.08-.07-.14-.17-.14-.28v-4.18c0-.13.08-.25.19-.31l25.12-12.56c.11-.06.24-.05.34.01.1.06.17.18.17.3v10.46c0,.16-.11.3-.26.34l-25.12,6.28s-.06.01-.08.01ZM83.6,84.8v3.52l24.42-6.1v-9.63l-24.42,12.21Z"/>
      </g>
      <g>
        <rect class="cls-1" x="79.07" y="84.58" width="4.19" height="4.18"/>
        <path d="M83.25,89.12h-4.19c-.19,0-.35-.16-.35-.35v-4.18c0-.19.15-.35.35-.35h4.19c.19,0,.35.16.35.35v4.18c0,.19-.16.35-.35.35ZM79.41,88.42h3.49v-3.49h-3.49v3.49Z"/>
      </g>
    </g>
    <g>
      <g>
        <polygon points="83.25 88.77 89.81 82.58 108.37 74.33 108.37 72.03 89.53 81.44 83.25 88.77"/>
        <path d="M108.37,72.03v.16h0s-15.93-9.09-17.96-13.93c-1.23-2.93-1.19-6.51-1.19-6.51,0,0,.31-1.33.31-.65,0,8.37,18.84,20.93,18.84,20.93Z"/>
      </g>
      <g>
        <polygon points="79.07 88.77 72.51 82.58 53.95 74.33 53.95 72.03 72.79 81.44 79.07 88.77"/>
        <path d="M53.95,72.03v.16h0s15.93-9.09,17.96-13.93c1.23-2.93,1.19-6.51,1.19-6.51,0,0-.31-1.33-.31-.65,0,8.37-18.84,20.93-18.84,20.93Z"/>
      </g>
    </g>
    <path d="M78.22,64.38c-.56,0-1.05.39-1.17.94l-1.17,5.19c-.15.68-.15,1.38-.01,2.07l1.77,8.32-2.38-8.38c-.18-.64-.23-1.31-.14-1.96l.87-6.45c.08-.6.59-1.04,1.19-1.04h7.96c.6,0,1.11.45,1.19,1.04l.87,6.45c.09.66.04,1.33-.14,1.96l-2.38,8.38,1.78-8.32c.14-.68.14-1.39-.01-2.07l-1.17-5.19c-.13-.55-.61-.94-1.18-.94h-5.87Z"/>
    <path d="M78.5,82.86c-.41,0-.78-.23-.95-.6l-.27-.57c-.06-.12-.1-.24-.13-.37l-.25-1.16.38.8c.23.49.72.8,1.25.8h5.24c.54,0,1.03-.31,1.26-.8l.38-.8-.25,1.16c-.03.13-.07.26-.13.37l-.27.57c-.18.37-.54.6-.95.6h-5.32Z"/>
    <g>
      <path class="cls-1" d="M84.65,39.44s-.04,0-.05,0c-.13-.03-.2-.15-.17-.28l.9-3.75c.03-.13.15-.21.28-.17.12.03.2.15.17.28l-.9,3.75c-.02.11-.12.18-.22.18Z"/>
      <path class="cls-1" d="M77.67,39.44c-.1,0-.2-.07-.23-.18l-.9-3.75c-.03-.12.05-.25.17-.28.13-.04.25.05.28.17l.89,3.75c.03.12-.05.25-.17.28-.02,0-.04,0-.05,0Z"/>
    </g>
  </g>
</svg>