<?xml version="1.0" encoding="UTF-8"?>
<svg id="Layer_1" data-name="Layer 1" xmlns="http://www.w3.org/2000/svg" viewBox="0 0 2205.25 388.8">
  <defs>
    <style>
      .cls-1 {
        fill: #fff;
      }

      .cls-2 {
        fill: red;
      }
    </style>
  </defs>
  <g>
    <path class="cls-1" d="M504.97,139.1c-19.44,0-29.2-8.75-29.2-26.28s9.77-26.29,29.2-26.29h58.45v17.52h-55.53c-9.72,0-14.58,2.94-14.58,8.77s4.86,8.75,14.58,8.75h26.33c19.44,0,29.2,8.79,29.2,26.31s-9.76,26.29-29.2,26.29h-58.45v-17.52h55.49c9.76,0,14.62-2.92,14.62-8.77s-4.86-8.77-14.62-8.77h-26.29Z"/>
    <path class="cls-1" d="M598.17,174.16l-26.24-87.63h18.28l17.12,57.06,17.08-57.06h18.3l17.1,57.06,17.08-57.06h18.28l-26.24,87.63h-18.28l-17.05-57.08-17.15,57.08h-18.28Z"/>
    <path class="cls-1" d="M721.16,174.16h-17.52v-87.63h17.52v87.63Z"/>
    <path class="cls-1" d="M767.9,139.1c-19.46,0-29.2-8.75-29.2-26.28s9.74-26.29,29.2-26.29h58.43v17.52h-55.51c-9.72,0-14.6,2.94-14.6,8.77s4.88,8.75,14.6,8.75h26.31c19.46,0,29.2,8.79,29.2,26.31s-9.74,26.29-29.2,26.29h-58.43v-17.52h55.49c9.74,0,14.62-2.92,14.62-8.77s-4.88-8.77-14.62-8.77h-26.29Z"/>
    <path class="cls-1" d="M873.07,139.1c-19.46,0-29.2-8.75-29.2-26.28s9.74-26.29,29.2-26.29h58.43v17.52h-55.51c-9.72,0-14.6,2.94-14.6,8.77s4.88,8.75,14.6,8.75h26.31c19.46,0,29.2,8.79,29.2,26.31s-9.74,26.29-29.2,26.29h-58.43v-17.52h55.49c9.74,0,14.62-2.92,14.62-8.77s-4.88-8.77-14.62-8.77h-26.29Z"/>
    <path class="cls-1" d="M1024.98,174.16h-17.52v-87.63h17.52v87.63Z"/>
    <path class="cls-1" d="M1060.04,113.09v61.07h-17.52v-87.63h17.86l52.25,61.04v-61.04h17.52v87.63h-17.82l-52.3-61.07Z"/>
    <path class="cls-1" d="M1182.74,104.05h-35.01l-.05-17.52h87.63v17.52h-35.06v70.11h-17.52v-70.11Z"/>
    <path class="cls-1" d="M1252.85,86.53h87.63v17.52h-87.63v-17.52ZM1252.85,121.56h87.63v17.54h-87.63v-17.54ZM1252.85,174.16v-17.52h87.63v17.52h-87.63Z"/>
    <path class="cls-1" d="M1384.08,139.1h-26.06v-17.54h55.49c9.74,0,14.62-2.92,14.62-8.75s-4.88-8.77-14.62-8.77h-55.49v-17.52h58.43c19.46,0,29.2,8.75,29.2,26.29s-9.74,26.28-29.2,26.28h-5.44l41.12,35.06h-26.93l-41.12-35.06Z"/>
    <path class="cls-1" d="M1492.39,139.1c-19.46,0-29.21-8.75-29.21-26.28s9.74-26.29,29.21-26.29h58.42v17.52h-55.51c-9.72,0-14.6,2.94-14.6,8.77s4.88,8.75,14.6,8.75h26.31c19.46,0,29.2,8.79,29.2,26.31s-9.74,26.29-29.2,26.29h-58.43v-17.52h55.49c9.74,0,14.62-2.92,14.62-8.77s-4.88-8.77-14.62-8.77h-26.28Z"/>
    <path class="cls-1" d="M1603.42,104.05h-35.01l-.04-17.52h87.63v17.52h-35.06v70.11h-17.52v-70.11Z"/>
    <path class="cls-1" d="M1673.5,86.53h87.63v17.52h-87.63v-17.52ZM1673.5,121.56h87.63v17.54h-87.63v-17.54ZM1673.5,174.16v-17.52h87.63v17.52h-87.63Z"/>
    <path class="cls-1" d="M1866.3,156.64v17.52h-87.62v-87.63h17.52v70.11h70.11Z"/>
    <path class="cls-1" d="M1971.47,156.64v17.52h-87.63v-87.63h17.52v70.11h70.11Z"/>
    <path class="cls-1" d="M2058.47,174.16l-28.51-65.6-28.46,65.6h-19.11l38.04-87.63h19.04l38.04,87.63h-19.04Z"/>
    <path class="cls-1" d="M2114.4,139.1h-26.06v-17.54h55.49c9.74,0,14.62-2.92,14.62-8.75s-4.88-8.77-14.62-8.77h-55.49v-17.52h58.43c19.46,0,29.2,8.75,29.2,26.29s-9.74,26.28-29.2,26.28h-5.44l41.12,35.06h-26.93l-41.12-35.06Z"/>
  </g>
  <g>
    <path class="cls-1" d="M470.43,234.31h87.7v17.52h-87.7v-17.52ZM470.43,269.37h87.7l-.07,17.54h-87.63v-17.54Z"/>
    <path class="cls-1" d="M575.6,234.31h87.63v17.52h-87.63v-17.52ZM575.6,269.37h87.63v17.54h-87.63v-17.54ZM575.6,321.94v-17.52h87.63v17.52h-87.63Z"/>
    <path class="cls-1" d="M680.77,251.82v-17.52h58.43c19.46,0,29.2,9.74,29.2,29.23v29.2c0,19.48-9.74,29.2-29.2,29.2h-58.43v-17.52h55.97c9.35,0,14.02-4.61,14.02-13.86v-24.94c0-9.19-4.67-13.79-13.98-13.79h-56.02Z"/>
    <path class="cls-1" d="M785.94,234.31h87.63v17.52h-87.63v-17.52ZM785.94,269.37h87.63v17.54h-87.63v-17.54ZM785.94,321.94v-17.52h87.63v17.52h-87.63Z"/>
    <path class="cls-1" d="M917.16,286.91h-26.06v-17.54h55.49c9.74,0,14.62-2.91,14.62-8.75s-4.88-8.79-14.62-8.79h-55.49v-17.52h58.43c19.46,0,29.2,8.77,29.2,26.31s-9.74,26.29-29.2,26.29h-5.44l41.12,35.03h-26.93l-41.12-35.03Z"/>
    <path class="cls-1" d="M1065.74,321.94l-28.51-65.6-28.46,65.6h-19.11l38.04-87.63h19.04l38.04,87.63h-19.04Z"/>
    <path class="cls-1" d="M1118.84,251.82h-35.01l-.05-17.52h87.63v17.52h-35.06v70.11h-17.52v-70.11Z"/>
    <path class="cls-1" d="M1206.47,321.94h-17.52v-87.63h17.52v87.63Z"/>
    <path class="cls-1" d="M1282.44,321.94l-29.23.07v-.07c-19.46,0-29.2-9.72-29.2-29.2v-29.2c0-19.48,9.74-29.23,29.2-29.23h29.23c19.46,0,29.2,9.74,29.2,29.23v29.2c0,19.44-9.74,29.18-29.2,29.2ZM1279.5,304.42c9.74,0,14.62-4.88,14.62-14.6v-23.37c0-9.74-4.88-14.63-14.62-14.63h-26.28c-7.78,0-11.68,4.89-11.68,14.63v23.37c0,9.72,4.88,14.6,14.6,14.6h23.37Z"/>
    <path class="cls-1" d="M1346.7,260.9v61.04h-17.52v-87.63h17.86l52.25,61.07v-61.07h17.52v87.63h-17.82l-52.3-61.04Z"/>
  </g>
  <g>
    <rect class="cls-2" x="14.28" y="20.89" width="350.45" height="350.44"/>
    <g>
      <polygon class="cls-1" points="187.7 121.82 187.7 162.58 186.66 171.89 156.03 201.57 179.83 170.62 182.58 118.46 188.97 94.5 187.7 121.82"/>
      <path class="cls-1" d="M338.23,146.55v99.14h-99.14v66.98c-.66.16-1.32.38-2.03.55.94,2.86,1.21,5.84.82,8.7-.66-3.97-2.14-7.71-4.29-11.01-2.2-3.31-5.23-6.12-8.76-8.32-3.47-2.2-7.6-3.63-11.84-4.35-4.3-.67-8.82-.6-13.28.27,2.15-1.05,4.52-1.71,7-2.09l-10.97-96.06-12.33-.05-11.35,99.52c2.37,1.27,4.52,2.76,6.28,4.57-5.34-2.31-10.52-4.08-16.03-4.91-5.07-.82-10.19-.82-15.58-.43.43.77.82,1.54,1.16,2.37,1.71,4.14,2.31,8.59,1.71,12.89-1.1-7.5-4.41-14.37-9.64-19.88v-48.74H40.81v-99.14h99.14V47.41h99.14v99.14h99.14Z"/>
      <path class="cls-1" d="M303.47,304.9c-4.52-1.54-9.36-2.37-14.43-2.37-7.38,1.1-14.16,3.04-20.26,6.33-6.06,3.25-11.24,7.66-15.76,12.89,1.49-4.02,4.18-7.65,7.6-10.63-4.02-.39-7.76-.55-11.51-.22-3.36.27-6.61.88-10.03,1.76v32.05h99.14v-71.71c-19.11,0-31.39,13.71-34.75,31.89ZM112.52,281.71c-5.46,0-10.63,1.06-15.26,2.92-8.32-10.9-21.37-17.95-36.07-17.95-5.56,0-15.48.99-20.38,2.81v75.24h99.14v-50.29c-.72-.78-1.49-1.49-2.31-2.2-6.61-5.84-15.42-9.47-25.12-10.52Z"/>
    </g>
    <g>
      <g>
        <path d="M225.66,161.34c-.55,0-1-.45-1-1v-9.04c0-.55.45-1,1-1s1.01.45,1.01,1v9.04c0,.55-.45,1-1.01,1Z"/>
        <path d="M153.37,161.34c-.55,0-1.01-.45-1.01-1v-9.04c0-.55.46-1,1.01-1s1.01.45,1.01,1v9.04c0,.55-.45,1-1.01,1Z"/>
      </g>
      <g>
        <path class="cls-1" d="M175.96,217.07s-4.52,0-4.52-9.04v-19.69c0-3.49-3.59-5.82-6.78-4.41l-33.89,15.06v-22.59s40.67-27.11,40.67-45.18,9.03-40.67,9.03-49.71,4.52-9.03,9.03-9.03,9.04,0,9.04,9.03,9.03,31.63,9.03,49.71,40.67,45.18,40.67,45.18v22.59l-33.89-15.06c-3.19-1.42-6.78.92-6.78,4.41v19.69c0,9.04-4.52,9.04-4.52,9.04h-27.11Z"/>
        <path d="M203.07,217.82h-27.11c-.22,0-5.27-.11-5.27-9.79v-19.69c0-1.39-.7-2.66-1.85-3.41-1.16-.75-2.6-.87-3.87-.3l-33.89,15.06c-.23.09-.5.08-.71-.06-.21-.14-.34-.38-.34-.63v-22.59c0-.25.12-.49.33-.62.4-.27,40.33-27.09,40.33-44.56,0-10.68,3.15-23.04,5.69-32.97,1.79-7.02,3.35-13.09,3.35-16.74,0-9.79,5.2-9.79,9.79-9.79s9.8,0,9.8,9.79c0,3.65,1.54,9.71,3.34,16.74,2.54,9.93,5.7,22.29,5.7,32.97,0,17.47,39.93,44.29,40.34,44.56.21.14.33.38.33.62v22.59c0,.26-.12.49-.34.63-.21.14-.48.16-.71.06l-33.89-15.06c-1.26-.57-2.71-.45-3.86.3-1.16.76-1.86,2.03-1.86,3.41v19.69c0,9.68-5.06,9.79-5.27,9.79ZM175.97,216.31h27.1c.14,0,3.76-.21,3.76-8.28v-19.69c0-1.89.95-3.64,2.54-4.68,1.58-1.03,3.57-1.18,5.3-.42l32.83,14.59v-21.03c-4.19-2.83-40.67-28-40.67-45.59,0-10.49-3.13-22.75-5.65-32.6-1.82-7.12-3.38-13.27-3.38-17.11,0-8.28-3.84-8.28-8.29-8.28s-8.28,0-8.28,8.28c0,3.84-1.58,9.99-3.39,17.11-2.51,9.85-5.64,22.1-5.64,32.6,0,17.59-36.48,42.75-40.67,45.59v21.03l32.83-14.59c1.73-.76,3.72-.61,5.3.42,1.59,1.03,2.54,2.78,2.54,4.68v19.69c0,8.02,3.57,8.28,3.77,8.28Z"/>
      </g>
      <path d="M184.94,153.81c-1.62,0-2.94-1.58-2.94-3.54v-25.55c0-1.69-.17-3.37-.51-5.01l-2.63-12.65c-.4-1.91-.21-3.93.52-5.69l5.56-13.39c.5-1.2,3.33-1.96,4.57-1.96s4.07.76,4.57,1.96l5.57,13.39c.73,1.76.92,3.78.52,5.69l-2.63,12.65c-.34,1.64-.51,3.32-.51,5.01v25.55c0,1.96-1.32,3.54-2.95,3.54h-9.14Z"/>
      <g>
        <g>
          <polygon class="cls-1" points="184.99 203.52 130.77 176.4 130.77 199 184.99 212.55 184.99 203.52"/>
          <path d="M184.99,213.31c-.06,0-.12,0-.18-.02l-54.22-13.56c-.34-.09-.57-.38-.57-.73v-22.59c0-.26.14-.5.36-.64.23-.14.5-.15.73-.03l54.22,27.11c.26.13.42.39.42.68v9.03c0,.23-.11.45-.29.6-.14.1-.3.16-.47.16ZM131.53,198.41l52.71,13.18v-7.61l-52.71-26.36v20.79Z"/>
        </g>
        <g>
          <polygon class="cls-1" points="194.04 203.52 248.26 176.4 248.26 199 194.04 212.55 194.04 203.52"/>
          <path d="M194.04,213.31c-.17,0-.33-.06-.47-.16-.18-.15-.29-.36-.29-.6v-9.03c0-.29.16-.55.42-.68l54.23-27.11c.23-.12.51-.1.73.03.23.14.36.38.36.64v22.59c0,.35-.23.65-.57.73l-54.23,13.56c-.06.02-.12.02-.18.02ZM194.79,203.98v7.61l52.72-13.18v-20.79l-52.72,26.36Z"/>
        </g>
        <g>
          <rect class="cls-1" x="184.99" y="203.52" width="9.04" height="9.03"/>
          <path d="M194.04,213.31h-9.04c-.42,0-.75-.34-.75-.76v-9.03c0-.42.33-.75.75-.75h9.04c.41,0,.75.34.75.75v9.03c0,.42-.34.76-.75.76ZM185.75,211.8h7.53v-7.53h-7.53v7.53Z"/>
        </g>
      </g>
      <g>
        <g>
          <polygon points="194.04 212.55 208.2 199.2 248.26 181.37 248.26 176.4 207.59 196.74 194.04 212.55"/>
          <path d="M248.26,176.4v.34h0s-34.4-19.63-38.78-30.07c-2.65-6.33-2.57-14.05-2.57-14.05,0,0,.67-2.88.67-1.4,0,18.07,40.67,45.18,40.67,45.18Z"/>
        </g>
        <g>
          <polygon points="184.99 212.55 170.83 199.2 130.77 181.37 130.77 176.4 171.44 196.74 184.99 212.55"/>
          <path d="M130.77,176.4v.34h0s34.4-19.63,38.77-30.07c2.65-6.33,2.58-14.05,2.58-14.05,0,0-.68-2.88-.68-1.4,0,18.07-40.67,45.18-40.67,45.18Z"/>
        </g>
      </g>
      <path d="M183.17,159.9c-1.21,0-2.27.84-2.53,2.03l-2.53,11.21c-.33,1.47-.33,2.99-.02,4.46l3.83,17.96-5.15-18.1c-.39-1.38-.49-2.82-.3-4.24l1.88-13.94c.18-1.29,1.28-2.25,2.58-2.25h17.18c1.3,0,2.41.96,2.58,2.25l1.88,13.94c.19,1.42.09,2.86-.3,4.24l-5.15,18.1,3.83-17.96c.31-1.47.3-2.99-.03-4.46l-2.52-11.21c-.27-1.19-1.32-2.03-2.54-2.03h-12.68Z"/>
      <path d="M183.77,199.8c-.88,0-1.68-.5-2.05-1.3l-.58-1.23c-.12-.26-.22-.53-.28-.81l-.54-2.5.82,1.73c.5,1.05,1.55,1.72,2.71,1.72h11.32c1.16,0,2.22-.67,2.72-1.72l.82-1.73-.54,2.5c-.05.28-.15.55-.27.81l-.58,1.23c-.38.8-1.17,1.3-2.05,1.3h-11.49Z"/>
      <g>
        <path class="cls-1" d="M197.06,106.06s-.08,0-.12-.02c-.27-.06-.43-.33-.37-.6l1.93-8.11c.06-.27.32-.45.61-.37.26.06.43.33.36.6l-1.93,8.11c-.05.23-.26.39-.48.39Z"/>
        <path class="cls-1" d="M181.98,106.06c-.23,0-.43-.15-.49-.39l-1.93-8.11c-.06-.27.1-.54.37-.6.29-.08.54.1.61.37l1.93,8.11c.06.27-.1.54-.37.6-.04.01-.08.02-.12.02Z"/>
      </g>
    </g>
  </g>
</svg>